HIERARCHY
ROOT hip
{
  OFFSET 0.00112043 5.09927 -9.65472
  CHANNELS 6 Xposition Yposition Zposition Zrotation Xrotation Yrotation
  JOINT abdomen
  {
    OFFSET 0 -1.186 -1.5018
    CHANNELS 3 Zrotation Xrotation Yrotation
    JOINT abdomen2
    {
      OFFSET 0 9.964 0.2134
      CHANNELS 3 Zrotation Xrotation Yrotation
      JOINT chest
      {
        OFFSET 0 13.134 -3.2573
        CHANNELS 3 Zrotation Xrotation Yrotation
        JOINT neck
        {
          OFFSET 0 20.686 -1.6905
          CHANNELS 3 Zrotation Xrotation Yrotation
          JOINT head
          {
            OFFSET 0 7.238 -0.1237
            CHANNELS 3 Zrotation Xrotation Yrotation
            End Site
            {
              OFFSET 0 0 0
            }
          }
        }
        JOINT lCollar
        {
          OFFSET 1.7069 20.075 5.0056
          CHANNELS 3 Zrotation Xrotation Yrotation
          JOINT lShldr
          {
            OFFSET 13.6458 -0.047 -4.849
            CHANNELS 3 Zrotation Xrotation Yrotation
            JOINT lForeArm
            {
              OFFSET 28.3255 -0.9759 2.2888
              CHANNELS 3 Zrotation Xrotation Yrotation
              JOINT lHand
              {
                OFFSET 22.1583 -0.53 10.8316
                CHANNELS 3 Zrotation Xrotation Yrotation
                JOINT lThumb1
                {
                  OFFSET 0.786 0.112 2.5817
                  CHANNELS 3 Zrotation Xrotation Yrotation
                  JOINT lThumb2
                  {
                    OFFSET 0.3601 -0.878 4.2331
                    CHANNELS 3 Zrotation Xrotation Yrotation
                    JOINT lThumb2_End
                    {
                      OFFSET 1.8127 -1.216 2.2227
                      CHANNELS 3 Zrotation Xrotation Yrotation
                      End Site
                      {
                        OFFSET 0.0181 -0.0122 0.0222
                      }
                    }
                  }
                }
                JOINT lCarpal1
                {
                  OFFSET 0.9571 1.114 1.7695
                  CHANNELS 3 Zrotation Xrotation Yrotation
                  JOINT lIndex1
                  {
                    OFFSET 4.1246 0.487 4.1451
                    CHANNELS 3 Zrotation Xrotation Yrotation
                    JOINT lIndex2
                    {
                      OFFSET 3.4052 -1.454 2.7682
                      CHANNELS 3 Zrotation Xrotation Yrotation
                      JOINT lIndex2_End
                      {
                        OFFSET 1.4531 -1.795 1.2713
                        CHANNELS 3 Zrotation Xrotation Yrotation
                        End Site
                        {
                          OFFSET 0.0145 -0.0179 0.0127
                        }
                      }
                    }
                  }
                  JOINT lMid1
                  {
                    OFFSET 5.6954 0.21 2.1184
                    CHANNELS 3 Zrotation Xrotation Yrotation
                    JOINT lMid2
                    {
                      OFFSET 3.9766 -1.54 2.3863
                      CHANNELS 3 Zrotation Xrotation Yrotation
                      JOINT lMid2_End
                      {
                        OFFSET 1.4042 -1.926 1.125
                        CHANNELS 3 Zrotation Xrotation Yrotation
                        End Site
                        {
                          OFFSET 0.014 -0.0193 0.0113
                        }
                      }
                    }
                  }
                }
                JOINT lCarpal2
                {
                  OFFSET 2.0956 0.66 -0.3894
                  CHANNELS 3 Zrotation Xrotation Yrotation
                  JOINT lRing1
                  {
                    OFFSET 5.0395 -0.09 2.4971
                    CHANNELS 3 Zrotation Xrotation Yrotation
                    JOINT lRing2
                    {
                      OFFSET 3.7921 -1.552 1.4806
                      CHANNELS 3 Zrotation Xrotation Yrotation
                      JOINT lRing2_End
                      {
                        OFFSET 1.4655 -1.808 0.9609
                        CHANNELS 3 Zrotation Xrotation Yrotation
                        End Site
                        {
                          OFFSET 0.0147 -0.0181 0.0096
                        }
                      }
                    }
                  }
                  JOINT lPinky1
                  {
                    OFFSET 4.9141 -1.269 0.3591
                    CHANNELS 3 Zrotation Xrotation Yrotation
                    JOINT lPinky2
                    {
                      OFFSET 3.1477 -1.685 0.8462
                      CHANNELS 3 Zrotation Xrotation Yrotation
                      JOINT lPinky2_End
                      {
                        OFFSET 0.8055 -1.585 0.7955
                        CHANNELS 3 Zrotation Xrotation Yrotation
                        End Site
                        {
                          OFFSET 0.0081 -0.0158 0.008
                        }
                      }
                    }
                  }
                }
              }
            }
          }
        }
        JOINT rCollar
        {
          OFFSET -1.7069 20.075 5.0056
          CHANNELS 3 Zrotation Xrotation Yrotation
          JOINT rShldr
          {
            OFFSET -13.6458 -0.047 -4.849
            CHANNELS 3 Zrotation Xrotation Yrotation
            JOINT rForeArm
            {
              OFFSET -28.3255 -0.9759 2.2888
              CHANNELS 3 Zrotation Xrotation Yrotation
              JOINT rHand
              {
                OFFSET -22.1583 -0.53 10.8316
                CHANNELS 3 Zrotation Xrotation Yrotation
                JOINT rThumb1
                {
                  OFFSET -0.786 0.112 2.5817
                  CHANNELS 3 Zrotation Xrotation Yrotation
                  JOINT rThumb2
                  {
                    OFFSET -0.3601 -0.878 4.2331
                    CHANNELS 3 Zrotation Xrotation Yrotation
                    JOINT rThumb2_End
                    {
                      OFFSET -1.8127 -1.216 2.2227
                      CHANNELS 3 Zrotation Xrotation Yrotation
                      End Site
                      {
                        OFFSET -0.0181 -0.0122 0.0222
                      }
                    }
                  }
                }
                JOINT rCarpal1
                {
                  OFFSET -0.9571 1.114 1.7695
                  CHANNELS 3 Zrotation Xrotation Yrotation
                  JOINT rIndex1
                  {
                    OFFSET -4.1246 0.487 4.1451
                    CHANNELS 3 Zrotation Xrotation Yrotation
                    JOINT rIndex2
                    {
                      OFFSET -3.4052 -1.454 2.7682
                      CHANNELS 3 Zrotation Xrotation Yrotation
                      JOINT rIndex2_End
                      {
                        OFFSET -1.4531 -1.795 1.2713
                        CHANNELS 3 Zrotation Xrotation Yrotation
                        End Site
                        {
                          OFFSET -0.0145 -0.018 0.0127
                        }
                      }
                    }
                  }
                  JOINT rMid1
                  {
                    OFFSET -5.6954 0.21 2.1184
                    CHANNELS 3 Zrotation Xrotation Yrotation
                    JOINT rMid2
                    {
                      OFFSET -3.9766 -1.54 2.3863
                      CHANNELS 3 Zrotation Xrotation Yrotation
                      JOINT rMid2_End
                      {
                        OFFSET -1.4042 -1.926 1.125
                        CHANNELS 3 Zrotation Xrotation Yrotation
                        End Site
                        {
                          OFFSET -0.014 -0.0193 0.0113
                        }
                      }
                    }
                  }
                }
                JOINT rCarpal2
                {
                  OFFSET -2.0956 0.66 -0.3894
                  CHANNELS 3 Zrotation Xrotation Yrotation
                  JOINT rRing1
                  {
                    OFFSET -5.0395 -0.09 2.4971
                    CHANNELS 3 Zrotation Xrotation Yrotation
                    JOINT rRing2
                    {
                      OFFSET -3.7921 -1.552 1.4806
                      CHANNELS 3 Zrotation Xrotation Yrotation
                      JOINT rRing2_End
                      {
                        OFFSET -1.4655 -1.808 0.9609
                        CHANNELS 3 Zrotation Xrotation Yrotation
                        End Site
                        {
                          OFFSET -0.0147 -0.0181 0.0096
                        }
                      }
                    }
                  }
                  JOINT rPinky1
                  {
                    OFFSET -4.9141 -1.269 0.3592
                    CHANNELS 3 Zrotation Xrotation Yrotation
                    JOINT rPinky2
                    {
                      OFFSET -3.1477 -1.685 0.8462
                      CHANNELS 3 Zrotation Xrotation Yrotation
                      JOINT rPinky2_End
                      {
                        OFFSET -0.8055 -1.585 0.7955
                        CHANNELS 3 Zrotation Xrotation Yrotation
                        End Site
                        {
                          OFFSET -0.0081 -0.0158 0.008
                        }
                      }
                    }
                  }
                }
              }
            }
          }
        }
      }
    }
  }
  JOINT lThigh
  {
    OFFSET 8.367 -8.2066 0.5982
    CHANNELS 3 Zrotation Xrotation Yrotation
    JOINT lShin
    {
      OFFSET 2.1923 -43.463 -0.4932
      CHANNELS 3 Zrotation Xrotation Yrotation
      JOINT lFoot
      {
        OFFSET 0.7333 -45.8593 -2.6451
        CHANNELS 3 Zrotation Xrotation Yrotation
        End Site
        {
          OFFSET 2.6618 -4.2699 12.3931
        }
      }
    }
  }
  JOINT rThigh
  {
    OFFSET -8.367 -8.2066 0.5982
    CHANNELS 3 Zrotation Xrotation Yrotation
    JOINT rShin
    {
      OFFSET -2.1923 -43.463 -0.4931
      CHANNELS 3 Zrotation Xrotation Yrotation
      JOINT rFoot
      {
        OFFSET -0.7333 -45.8593 -2.6451
        CHANNELS 3 Zrotation Xrotation Yrotation
        End Site
        {
          OFFSET -2.6618 -4.2699 12.3931
        }
      }
    }
  }
}
MOTION
Frames:	4
Frame Time:	0.0333333
0 91.7903 2.51682 0 0 -0 0 0 -0 0 0 -0 0 0 -0 0 0 -0 0 0 -0 0 0 -0 1.66051 0.0835086 5.75766 -0.0175111 0.895433 15.7816 7.95139e-016 -1.98785e-016 -0 5.46658e-016 -3.97569e-016 -0 5.96354e-016 0 -0 3.97569e-016 1.98785e-016 9.54166e-015 1.49089e-016 -3.97569e-016 -0 6.4605e-016 0 3.18055e-015 5.96354e-016 0 3.18055e-015 8.94531e-016 -1.98785e-016 6.36111e-015 6.4605e-016 0 3.18055e-015 5.96354e-016 0 3.18055e-015 8.94531e-016 -1.98785e-016 6.36111e-015 1.49089e-016 -3.97569e-016 -0 6.4605e-016 0 3.18055e-015 5.96354e-016 0 3.18055e-015 8.94531e-016 -1.98785e-016 6.36111e-015 6.4605e-016 0 3.18055e-015 5.96354e-016 0 3.18055e-015 8.94531e-016 -1.98785e-016 6.36111e-015 0 0 -0 -1.4496 0.0636048 -5.0245 -1.74811 1.20616 -16.8394 -1.19271e-015 1.98785e-016 -3.18055e-015 -3.97569e-016 1.98785e-016 -3.18055e-015 -2.98177e-016 1.98785e-016 -3.18055e-015 -2.98177e-016 3.97569e-016 -0 4.96962e-016 0 -6.36111e-015 -9.93923e-017 3.97569e-016 -0 -8.94531e-016 5.96354e-016 -0 -3.97569e-016 3.97569e-016 -0 -9.93923e-017 3.97569e-016 -0 -8.94531e-016 5.96354e-016 -0 -3.97569e-016 3.97569e-016 -0 4.96962e-016 0 -6.36111e-015 -9.93923e-017 3.97569e-016 -0 -8.94531e-016 5.96354e-016 -0 -3.97569e-016 3.97569e-016 -0 -9.93923e-017 3.97569e-016 -0 -8.94531e-016 5.96354e-016 -0 -3.97569e-016 3.97569e-016 -0 -4.66111 -0.998717 0.12318 0.00986924 1.54847 0.176523 4.65186 -0.572283 -0.254274 4.66111 -0.998765 -0.123176 -0.00986867 1.54869 -0.176537 -4.65186 -0.572453 0.25427 
42.0329 28.8321 32.2319 179.97 59.0055 -29.9888 -1.30085 10.2023 3.99752 -3.41702 20.2822 8.43743 -3.41702 20.2822 8.43744 0.000422499 13.9962 -9.53937e-005 -0.0926707 -0.148631 -0.000119787 -32.5695 -2.20815 -7.86301 -33.9078 54.9476 5.09976 13.1097 34.4212 2.02802 0.0943096 -18.2779 -7.26232 1.59028e-015 -1.98785e-015 -6.36111e-015 -1.32417e-031 -2.38542e-015 -3.18055e-015 3.97569e-016 -1.59028e-015 -0 7.95139e-016 -3.97569e-016 -6.36111e-015 1.59028e-015 -1.19271e-015 6.36111e-015 -1.19271e-015 -2.38542e-015 -1.27222e-014 -0 -1.19271e-015 -0 1.59028e-015 -1.19271e-015 6.36111e-015 -1.19271e-015 -2.38542e-015 -1.27222e-014 -0 -1.19271e-015 -0 7.95139e-016 -3.97569e-016 -6.36111e-015 1.59028e-015 -1.19271e-015 6.36111e-015 -1.19271e-015 -2.38542e-015 -1.27222e-014 -0 -1.19271e-015 -0 1.59028e-015 -1.19271e-015 6.36111e-015 -1.19271e-015 -2.38542e-015 -1.27222e-014 -0 -1.19271e-015 -0 -18.9628 -14.0539 1.26538 69.2616 54.9544 -7.93006 -22.6634 28.6925 25.1615 2.98435 -0.533986 -15.0226 -7.95139e-016 1.19271e-015 1.27222e-014 -2.38542e-015 1.98785e-015 -0 -7.95139e-016 1.59028e-015 6.36111e-015 1.76556e-031 -7.95139e-016 1.27222e-014 -2.38542e-015 1.59028e-015 -0 -3.18055e-015 1.19271e-015 3.18055e-015 -2.38542e-015 1.59028e-015 3.18055e-015 -2.38542e-015 1.59028e-015 -0 -3.18055e-015 1.19271e-015 3.18055e-015 -2.38542e-015 1.59028e-015 3.18055e-015 1.76556e-031 -7.95139e-016 1.27222e-014 -2.38542e-015 1.59028e-015 -0 -3.18055e-015 1.19271e-015 3.18055e-015 -2.38542e-015 1.59028e-015 3.18055e-015 -2.38542e-015 1.59028e-015 -0 -3.18055e-015 1.19271e-015 3.18055e-015 -2.38542e-015 1.59028e-015 3.18055e-015 62.5505 -54.1634 64.3172 3.19455 19.5448 0.513855 6.82826 -0.959736 -0.352233 -78.6651 -44.9495 -77.3071 -117.961 67.1576 142.268 -29.1184 19.1933 5.17358 
42.0197 28.8246 32.2067 179.97 59.0055 -29.9888 -1.22155 10.0185 4.0212 -3.24164 19.9204 8.45914 -3.24165 19.9205 8.45914 -0.520441 13.9964 0.125842 -0.109341 -0.199719 -0.162828 -33.6188 -1.86439 -7.2033 -32.8713 54.9682 5.03941 12.6519 34.557 2.6 0.235738 -17.7341 -7.51622 -1.19271e-015 0 3.18055e-015 -7.95139e-016 1.59028e-015 3.18055e-015 -3.97569e-016 3.97569e-016 3.18055e-015 -3.97569e-016 -3.97569e-016 3.18055e-015 -3.97569e-016 0 1.27222e-014 -1.98785e-015 1.19271e-015 9.54166e-015 -3.97569e-016 7.95139e-016 -0 -3.97569e-016 0 1.27222e-014 -1.98785e-015 1.19271e-015 9.54166e-015 -3.97569e-016 7.95139e-016 -0 -3.97569e-016 -3.97569e-016 3.18055e-015 -3.97569e-016 0 1.27222e-014 -1.98785e-015 1.19271e-015 9.54166e-015 -3.97569e-016 7.95139e-016 -0 -3.97569e-016 0 1.27222e-014 -1.98785e-015 1.19271e-015 9.54166e-015 -3.97569e-016 7.95139e-016 -0 -18.8008 -13.2009 1.10754 69.2617 54.9544 -7.93008 -22.6634 28.6925 25.1615 2.90678 -0.0942779 -15.1864 -4.52846e-007 -5.52534e-008 -5.13133e-008 7.95139e-016 1.59028e-015 -0 7.95139e-016 2.38542e-015 -0 -7.95139e-016 -2.38542e-015 3.18055e-015 -4.52846e-007 -5.52534e-008 -5.13133e-008 -7.95139e-016 1.59028e-015 -0 -7.95139e-016 3.18055e-015 -3.18055e-015 -4.52846e-007 -5.52534e-008 -5.13133e-008 -7.95139e-016 1.59028e-015 -0 -7.95139e-016 3.18055e-015 -3.18055e-015 -7.95139e-016 -2.38542e-015 3.18055e-015 -4.52846e-007 -5.52534e-008 -5.13133e-008 -7.95139e-016 1.59028e-015 -0 -7.95139e-016 3.18055e-015 -3.18055e-015 -4.52846e-007 -5.52534e-008 -5.13133e-008 -7.95139e-016 1.59028e-015 -0 -7.95139e-016 3.18055e-015 -3.18055e-015 62.5577 -54.1749 64.3529 3.19929 19.7898 0.51246 6.83863 -0.879475 -0.356241 -79.4734 -45.3973 -77.9274 -119.005 67.2486 143.164 -29.1194 19.2001 5.17589 
42.0069 28.8171 32.1815 179.97 59.0055 -29.9888 -1.14106 9.83305 4.04296 -3.06358 19.5557 8.47724 -3.06359 19.5557 8.47724 -1.04125 13.9934 0.251781 -0.126166 -0.250799 -0.325612 -34.6741 -1.53208 -6.53611 -31.833 54.9882 4.9783 12.1917 34.689 3.17435 0.379326 -17.1906 -7.77088 9.21322e-008 -2.16214e-007 -2.92313e-006 1.49654e-007 4.54847e-008 -7.27336e-008 1.59028e-014 1.98785e-014 -6.36111e-015 -7.95139e-016 0 -0 9.21322e-008 -2.16214e-007 -2.92313e-006 1.49654e-007 4.54847e-008 -7.27336e-008 1.43125e-014 1.94809e-014 -9.54166e-015 9.21322e-008 -2.16214e-007 -2.92313e-006 1.49654e-007 4.54847e-008 -7.27336e-008 1.43125e-014 1.94809e-014 -9.54166e-015 -7.95139e-016 0 -0 9.21322e-008 -2.16214e-007 -2.92313e-006 1.49654e-007 4.54847e-008 -7.27336e-008 1.43125e-014 1.94809e-014 -9.54166e-015 9.21322e-008 -2.16214e-007 -2.92313e-006 1.49654e-007 4.54847e-008 -7.27336e-008 1.43125e-014 1.94809e-014 -9.54166e-015 -18.6367 -12.3475 0.947614 69.2617 54.9544 -7.93007 -22.6634 28.6925 25.1615 2.83044 0.345769 -15.3497 7.95139e-016 -7.95139e-016 3.18055e-015 1.59028e-015 -7.95139e-016 -3.18055e-015 2.38542e-015 -7.95139e-016 -3.18055e-015 7.95139e-016 0 3.18055e-015 3.18055e-015 -7.95139e-016 1.59028e-014 7.95139e-016 -1.59028e-015 -9.54166e-015 1.59028e-015 -7.95139e-016 -3.18055e-015 3.18055e-015 -7.95139e-016 1.59028e-014 7.95139e-016 -1.59028e-015 -9.54166e-015 1.59028e-015 -7.95139e-016 -3.18055e-015 7.95139e-016 0 3.18055e-015 3.18055e-015 -7.95139e-016 1.59028e-014 7.95139e-016 -1.59028e-015 -9.54166e-015 1.59028e-015 -7.95139e-016 -3.18055e-015 3.18055e-015 -7.95139e-016 1.59028e-014 7.95139e-016 -1.59028e-015 -9.54166e-015 1.59028e-015 -7.95139e-016 -3.18055e-015 62.5668 -54.1864 64.39 3.20392 20.0365 0.511152 6.84885 -0.799903 -0.360227 -80.2951 -45.8396 -78.5625 -120.058 67.3326 144.069 -29.1206 19.2067 5.17752 
